<?xml version="1.0" standalone="no"?>
<!DOCTYPE svg PUBLIC "-//W3C//DTD SVG 20010904//EN"
 "http://www.w3.org/TR/2001/REC-SVG-20010904/DTD/svg10.dtd">
<svg version="1.0" xmlns="http://www.w3.org/2000/svg"
 width="512.000000pt" height="512.000000pt" viewBox="0 0 512.000000 512.000000"
 preserveAspectRatio="xMidYMid meet">

<g transform="translate(0.000000,512.000000) scale(0.100000,-0.100000)"
fill="#000000" stroke="none">
<path d="M620 4575 l-385 -385 0 -1802 0 -1803 22 -40 c28 -52 78 -99 128
-122 37 -17 90 -18 713 -21 l672 -3 0 -99 c0 -153 -54 -140 572 -140 l519 0
24 25 c23 22 25 31 25 124 l0 100 303 3 304 3 49 30 c30 19 60 49 79 79 l30
49 5 326 5 325 352 -381 c392 -424 393 -425 518 -431 129 -7 246 61 302 176
22 46 28 70 28 132 0 64 -5 84 -30 135 -27 54 -79 105 -510 503 -264 244 -504
465 -533 491 l-53 47 65 55 65 54 93 -3 c87 -3 97 -1 153 27 43 22 93 64 174
145 97 97 114 119 114 146 0 28 -38 70 -349 381 -252 252 -355 349 -371 349
l-23 0 0 851 c0 618 -3 862 -12 890 -16 55 -73 118 -132 145 l-51 24 -1240 0
-1239 0 -386 -385z m2872 224 c48 -26 48 -16 48 -975 l0 -897 -60 -63 c-87
-91 -105 -135 -105 -260 l0 -102 -87 -98 c-99 -113 -349 -361 -455 -451 -71
-61 -73 -62 -110 -51 -50 14 -143 3 -201 -22 -30 -14 -87 -62 -169 -142 -104
-103 -123 -127 -123 -153 0 -27 42 -72 353 -383 272 -271 358 -352 377 -352
18 0 57 33 151 128 154 155 174 195 166 329 l-5 82 60 70 c32 39 62 71 66 71
4 0 38 -34 75 -75 l68 -74 -3 -386 -3 -387 -33 -29 -32 -29 -298 0 -297 0 -17
30 c-9 16 -37 44 -62 62 l-46 32 0 87 c0 98 -9 131 -48 173 -50 53 -67 56
-365 56 -267 0 -275 -1 -318 -23 -69 -37 -89 -81 -89 -199 0 -97 0 -98 -29
-112 -16 -9 -47 -36 -69 -61 l-40 -45 -682 2 -682 3 -24 28 -24 28 0 1735 0
1734 259 0 c279 0 311 5 378 56 18 13 45 46 60 72 l28 47 3 278 3 277 1180 0
c826 0 1186 -3 1201 -11z m-2562 -541 l-30 -28 -208 0 -207 0 235 235 235 235
3 -207 3 -208 -31 -27z m3050 -1663 l275 -276 -78 -75 c-107 -104 -161 -123
-245 -89 -40 17 -373 340 -398 387 -19 36 -18 121 2 161 18 36 143 167 159
167 5 0 134 -124 285 -275z m-360 -360 l144 -144 -44 -38 c-152 -129 -441
-421 -514 -518 -14 -19 -21 -14 -163 128 l-148 148 40 36 c156 141 311 293
411 403 65 72 120 130 124 130 3 0 70 -65 150 -145z m552 -913 c276 -255 518
-481 536 -503 106 -132 -58 -330 -204 -247 -27 15 -213 209 -524 547 l-482
523 73 74 c41 41 79 73 86 72 6 -2 238 -211 515 -466z m-1438 423 c18 -9 111
-95 208 -193 151 -152 178 -183 188 -222 23 -83 -6 -144 -119 -255 l-51 -50
-280 280 -280 280 58 59 c83 85 135 116 195 116 27 0 63 -7 81 -15z m-134
-980 l0 -75 -265 0 -265 0 0 68 c0 38 3 72 7 75 3 4 123 7 265 7 l258 0 0 -75z
m90 -230 c55 -28 70 -60 70 -146 l0 -79 -426 0 -427 0 5 79 c5 90 22 125 71
146 48 21 666 21 707 0z"/>
<path d="M2410 4663 c-342 -57 -615 -319 -684 -655 -24 -114 -20 -255 9 -370
l7 -28 -255 0 -256 0 -20 -26 c-26 -34 -26 -54 0 -88 l20 -26 283 0 283 0 38
-61 c114 -185 316 -326 529 -370 534 -110 1023 309 993 851 -7 121 -25 196
-72 297 -111 240 -330 414 -587 467 -70 15 -226 19 -288 9z m295 -159 c127
-32 270 -121 348 -216 159 -194 204 -437 123 -670 -34 -97 -80 -170 -156 -248
-314 -320 -854 -250 -1076 140 -59 103 -85 207 -85 336 0 109 19 199 61 288
140 296 466 450 785 370z"/>
<path d="M2174 4268 c-69 -47 -97 -104 -92 -189 4 -76 32 -127 95 -169 31 -21
48 -25 114 -25 71 0 81 3 120 31 66 48 91 103 87 186 -3 55 -9 75 -33 109 -42
59 -102 89 -180 89 -54 0 -69 -4 -111 -32z m161 -133 c14 -13 25 -33 25 -45 0
-27 -43 -70 -70 -70 -27 0 -70 43 -70 70 0 27 43 70 70 70 12 0 32 -11 45 -25z"/>
<path d="M2483 3897 c-291 -290 -323 -326 -323 -355 0 -42 30 -72 72 -72 29 0
65 32 355 323 291 290 323 326 323 355 0 19 -8 40 -20 52 -12 12 -33 20 -52
20 -29 0 -65 -32 -355 -323z"/>
<path d="M2694 3796 c-43 -19 -101 -82 -115 -123 -18 -56 -7 -145 24 -190 43
-61 89 -87 166 -91 85 -5 142 23 189 92 28 42 32 57 32 111 0 78 -30 138 -89
180 -35 24 -53 30 -109 32 -42 2 -79 -2 -98 -11z m131 -151 c14 -13 25 -33 25
-45 0 -11 -11 -32 -25 -45 -13 -14 -33 -25 -45 -25 -11 0 -32 11 -45 25 -14
13 -25 34 -25 45 0 12 11 32 25 45 31 32 59 32 90 0z"/>
<path d="M931 3693 c-20 -21 -62 -66 -93 -101 l-56 -63 -42 51 c-37 44 -46 50
-80 50 -44 0 -70 -26 -70 -71 0 -34 132 -197 167 -205 45 -12 69 6 191 142
130 145 138 161 101 208 -31 39 -72 35 -118 -11z"/>
<path d="M980 2993 c-8 -2 -56 -47 -106 -100 l-91 -96 -50 51 c-54 57 -76 63
-117 31 -45 -36 -36 -70 44 -165 77 -92 100 -109 135 -100 12 3 67 54 122 113
134 146 153 171 153 198 0 42 -51 81 -90 68z"/>
<path d="M1235 2869 c-51 -28 -59 -76 -20 -114 l24 -25 974 0 c971 0 974 0
1001 21 31 25 34 66 7 100 l-19 24 -974 2 c-694 2 -979 -1 -993 -8z"/>
<path d="M936 2228 c-17 -18 -59 -63 -92 -100 l-61 -68 -45 50 c-51 56 -92 66
-128 30 -37 -37 -26 -71 56 -169 68 -82 79 -91 110 -91 40 0 53 11 193 168
110 122 119 145 76 187 -34 35 -70 32 -109 -7z"/>
<path d="M1215 2115 c-14 -13 -25 -31 -25 -40 0 -20 19 -57 34 -67 6 -4 338
-8 738 -8 l727 0 15 22 c22 31 20 74 -4 98 -20 20 -33 20 -740 20 l-721 0 -24
-25z"/>
<path d="M873 1423 l-90 -96 -50 51 c-54 57 -76 63 -117 31 -52 -41 -34 -85
93 -221 67 -73 79 -70 199 60 131 140 162 180 162 208 0 35 -34 64 -74 64 -30
0 -44 -11 -123 -97z"/>
<path d="M1234 1396 c-50 -22 -59 -72 -19 -111 l24 -25 469 0 469 0 21 23 c27
29 28 67 3 98 l-19 24 -459 2 c-369 2 -464 0 -489 -11z"/>
</g>
</svg>
