<?xml version="1.0" standalone="no"?>
<!DOCTYPE svg PUBLIC "-//W3C//DTD SVG 20010904//EN"
 "http://www.w3.org/TR/2001/REC-SVG-20010904/DTD/svg10.dtd">
<svg version="1.0" xmlns="http://www.w3.org/2000/svg"
 width="1024.000000pt" height="1024.000000pt" viewBox="0 0 1024.000000 1024.000000"
 preserveAspectRatio="xMidYMid meet">

<g transform="translate(0.000000,1024.000000) scale(0.100000,-0.100000)"
fill="#000000" stroke="none">
<path d="M2566 8985 c-1396 -635 -2541 -1157 -2544 -1159 -2 -3 76 -137 174
-298 l179 -293 133 -3 132 -3 0 -414 0 -415 320 0 320 0 0 -2105 0 -2105 -270
0 -270 0 0 -415 0 -415 -320 0 -320 0 0 -630 0 -630 5015 0 5015 0 0 630 0
630 -320 0 -320 0 0 415 0 415 -270 0 -270 0 0 2105 0 2105 320 0 320 0 0 415
0 414 136 3 136 3 179 294 c99 161 178 295 177 296 -15 11 -5091 2315 -5101
2314 -6 0 -1155 -520 -2551 -1154z m4778 -321 l2198 -999 -2211 -3 c-1216 -1
-3206 -1 -4421 0 l-2210 3 2202 1002 c1212 551 2212 1001 2223 1000 11 -2
1009 -453 2219 -1003z m1826 -1634 l0 -200 -4050 0 -4050 0 0 200 0 200 4050
0 4050 0 0 -200z m-6820 -2735 l0 -2105 -320 0 -320 0 0 2105 0 2105 320 0
320 0 0 -2105z m5110 0 l0 -2105 -2340 0 -2340 0 0 2105 0 2105 2340 0 2340 0
0 -2105z m1060 0 l0 -2105 -315 0 -315 0 0 2105 0 2105 315 0 315 0 0 -2105z
m540 -2735 l0 -200 -3945 0 -3945 0 0 200 0 200 3945 0 3945 0 0 -200z m640
-835 l0 -205 -4585 0 -4585 0 0 205 0 205 4585 0 4585 0 0 -205z"/>
<path d="M4330 5336 l0 -846 -367 -2 -368 -3 -3 -212 -2 -213 370 0 370 0 0
-210 0 -210 -370 0 -370 0 0 -210 0 -210 370 0 370 0 0 -405 0 -405 213 2 212
3 3 403 2 402 700 0 700 0 0 210 0 210 -700 0 -700 0 0 210 0 210 454 0 c361
0 471 3 542 15 414 71 739 365 850 770 32 113 43 316 24 432 -69 433 -385 770
-818 875 -83 20 -117 21 -784 25 l-698 4 0 -845z m1448 382 c162 -59 287 -165
359 -304 54 -104 73 -181 73 -296 0 -177 -56 -314 -180 -439 -86 -87 -171
-138 -280 -168 -70 -20 -101 -21 -537 -21 l-463 0 0 631 0 630 478 -3 477 -3
73 -27z"/>
</g>
</svg>
