<?xml version="1.0" standalone="no"?>
<!DOCTYPE svg PUBLIC "-//W3C//DTD SVG 20010904//EN"
 "http://www.w3.org/TR/2001/REC-SVG-20010904/DTD/svg10.dtd">
<svg version="1.0" xmlns="http://www.w3.org/2000/svg"
 width="512.000000pt" height="512.000000pt" viewBox="0 0 512.000000 512.000000"
 preserveAspectRatio="xMidYMid meet">

<g transform="translate(0.000000,512.000000) scale(0.100000,-0.100000)"
fill="#000000" stroke="none">
<path d="M1245 4550 c-135 -27 -237 -85 -358 -200 -147 -140 -283 -366 -390
-650 l-42 -113 -81 -26 c-140 -46 -244 -132 -311 -258 -60 -111 -63 -141 -63
-636 l0 -448 25 -24 c23 -24 30 -25 150 -25 l125 0 0 -34 c0 -142 93 -397 197
-537 l43 -59 -252 -297 c-138 -164 -259 -316 -269 -338 -40 -88 -20 -169 64
-249 103 -99 186 -120 283 -71 42 21 88 71 309 334 184 220 264 308 275 304
191 -74 317 -97 500 -90 215 8 407 70 581 187 143 97 293 269 371 425 57 113
86 214 113 388 l6 37 469 0 c455 0 470 -1 470 -19 0 -41 42 -151 80 -210 133
-205 371 -302 609 -246 193 46 367 222 412 418 l14 57 248 0 248 0 24 25 25
24 0 345 c0 377 -7 460 -50 577 -117 321 -408 449 -1026 449 l-171 0 -68 123
c-162 293 -293 477 -454 637 -99 98 -129 122 -205 160 l-89 45 -886 2 c-487 0
-904 -3 -926 -7z m1831 -160 c123 -61 260 -204 413 -430 79 -117 199 -318 251
-419 47 -93 27 -88 345 -94 293 -5 410 -18 527 -58 184 -62 287 -164 344 -339
15 -47 18 -104 22 -397 l4 -343 -206 0 -206 0 0 23 c0 12 -11 53 -25 91 -102
289 -411 443 -703 351 -133 -42 -263 -150 -324 -270 -28 -54 -58 -143 -58
-172 l0 -23 -470 0 -469 0 -6 38 c-29 186 -54 270 -111 385 -133 264 -354 461
-626 556 -145 50 -242 64 -413 58 -162 -5 -242 -21 -380 -76 -367 -147 -640
-504 -683 -893 l-7 -63 -78 -3 -78 -3 3 418 c3 411 3 419 26 476 30 74 116
168 186 202 29 14 83 31 119 37 37 6 73 18 81 27 7 9 32 66 54 126 177 483
378 741 633 809 45 12 197 15 915 15 l861 1 59 -30z m-1452 -1320 c551 -145
808 -780 515 -1273 -109 -183 -307 -330 -524 -388 -112 -30 -307 -30 -417 -1
-637 171 -864 946 -414 1419 133 141 308 233 499 264 81 13 253 2 341 -21z
m2501 -594 c94 -43 147 -128 148 -236 2 -154 -128 -271 -284 -257 -105 9 -195
82 -224 181 -19 62 -19 90 0 152 44 149 219 226 360 160z"/>
<path d="M1259 4225 c-166 -61 -327 -275 -454 -603 -40 -105 -42 -125 -15
-152 20 -20 33 -20 1365 -20 1332 0 1345 0 1365 20 32 32 24 64 -42 178 -149
259 -315 472 -437 560 l-44 32 -851 -1 c-682 0 -858 -3 -887 -14z m311 -129
c0 -2 -49 -115 -109 -252 l-110 -249 -205 -3 -205 -2 24 55 c102 231 199 368
300 426 48 28 55 29 178 29 70 0 127 -2 127 -4z m670 -251 l0 -255 -370 0
-369 0 48 108 c26 59 77 173 112 254 l64 148 258 0 257 0 0 -255z m754 223
c78 -64 224 -257 335 -440 l23 -38 -486 0 -486 0 0 255 0 255 288 0 287 0 39
-32z"/>
<path d="M2616 3219 c-19 -15 -26 -30 -26 -53 0 -58 20 -66 167 -66 113 0 132
2 146 18 26 29 22 77 -9 101 -23 18 -41 21 -139 21 -98 0 -116 -3 -139 -21z"/>
<path d="M959 2691 c-23 -18 -24 -25 -24 -146 0 -121 1 -128 24 -146 28 -23
59 -24 89 -3 20 13 22 24 22 95 l0 79 79 0 c64 0 83 4 105 21 32 25 35 70 6
99 -18 18 -33 20 -149 20 -112 0 -132 -3 -152 -19z"/>
<path d="M1552 2687 c-29 -30 -28 -62 3 -92 22 -22 32 -25 105 -25 l80 0 0
-75 c0 -62 4 -79 20 -95 27 -27 66 -25 95 5 24 23 25 30 25 138 0 100 -3 117
-21 141 -20 26 -22 26 -153 26 -126 0 -134 -1 -154 -23z"/>
<path d="M1203 2400 c-35 -14 -43 -42 -43 -153 0 -90 3 -108 21 -131 25 -32
70 -35 99 -6 18 18 20 33 20 139 0 117 -1 120 -26 140 -29 23 -38 24 -71 11z"/>
<path d="M1393 2400 c-35 -14 -43 -42 -43 -153 0 -90 3 -108 21 -131 25 -32
70 -35 99 -6 18 18 20 33 20 139 0 117 -1 120 -26 140 -29 23 -38 24 -71 11z"/>
<path d="M1583 2400 c-35 -14 -43 -42 -43 -153 0 -90 3 -108 21 -131 25 -32
70 -35 99 -6 18 18 20 33 20 139 0 117 -1 120 -26 140 -29 23 -38 24 -71 11z"/>
<path d="M954 2079 c-17 -18 -19 -37 -19 -146 0 -165 -2 -163 174 -163 120 0
129 1 149 23 28 30 28 68 -1 95 -20 19 -35 22 -105 22 l-82 0 0 78 c0 64 -4
82 -18 95 -26 24 -75 21 -98 -4z"/>
<path d="M1760 2080 c-16 -16 -20 -33 -20 -95 l0 -75 -80 0 c-73 0 -83 -3
-105 -25 -32 -31 -32 -59 0 -90 23 -24 30 -25 148 -25 172 0 171 -1 175 157 3
109 2 121 -18 146 -26 33 -71 36 -100 7z"/>
</g>
</svg>
