<?xml version="1.0" standalone="no"?>
<!DOCTYPE svg PUBLIC "-//W3C//DTD SVG 20010904//EN"
 "http://www.w3.org/TR/2001/REC-SVG-20010904/DTD/svg10.dtd">
<svg version="1.0" xmlns="http://www.w3.org/2000/svg"
 width="512.000000pt" height="512.000000pt" viewBox="0 0 512.000000 512.000000"
 preserveAspectRatio="xMidYMid meet">

<g transform="translate(0.000000,512.000000) scale(0.100000,-0.100000)"
fill="#000000" stroke="none">
<path d="M628 5100 c-155 -28 -286 -98 -404 -215 -77 -76 -98 -105 -137 -185
-66 -133 -81 -200 -81 -345 0 -145 15 -212 81 -345 39 -80 61 -109 138 -186
79 -80 104 -98 195 -142 136 -66 236 -87 375 -79 55 3 127 13 160 22 78 22
187 75 251 124 l51 39 154 -154 154 -154 -68 0 c-108 0 -179 -41 -218 -125
-18 -38 -19 -81 -19 -788 0 -817 -2 -787 58 -851 43 -46 97 -66 182 -66 l75 0
-159 -159 -159 -159 -59 43 c-121 89 -244 132 -403 142 -228 13 -429 -68 -588
-237 -234 -248 -272 -608 -96 -908 44 -73 178 -207 251 -251 138 -80 285 -117
433 -108 118 8 190 27 305 84 80 39 109 60 185 137 142 142 212 297 222 491
10 171 -31 319 -127 461 l-48 71 197 197 196 196 247 0 246 0 154 -267 c153
-267 154 -268 188 -268 33 0 34 1 188 268 l154 267 247 0 246 0 196 -196 197
-197 -48 -71 c-59 -88 -93 -168 -114 -268 -35 -168 -14 -323 66 -488 44 -91
62 -115 142 -195 77 -77 106 -99 186 -138 133 -66 200 -81 345 -81 146 0 213
16 345 81 78 39 110 63 180 133 121 121 186 239 216 396 47 247 -26 485 -204
667 -159 162 -349 236 -572 224 -165 -9 -285 -50 -407 -141 l-60 -44 -159 159
-159 159 75 0 c85 0 139 20 182 66 60 64 58 34 58 851 0 707 -1 750 -19 788
-39 84 -110 125 -218 125 l-68 0 154 154 154 154 59 -43 c136 -101 258 -139
443 -140 150 0 224 18 360 88 121 62 245 190 308 317 66 132 81 200 81 345 0
145 -15 212 -81 345 -39 80 -60 109 -137 185 -144 143 -298 212 -496 222 -223
11 -423 -70 -581 -234 -251 -261 -278 -669 -63 -964 l33 -45 -192 -192 -192
-192 -845 0 -845 0 -192 192 -192 192 33 45 c46 63 90 153 118 241 19 64 23
96 23 210 -1 125 -3 142 -32 225 -45 130 -94 208 -192 305 -94 93 -188 150
-316 190 -78 24 -256 35 -337 20z m323 -120 c110 -37 180 -80 265 -165 128
-127 194 -284 194 -460 0 -127 -53 -297 -117 -374 l-20 -24 -37 57 c-50 74
-135 149 -218 190 l-67 34 23 21 c35 33 75 112 86 170 19 99 -21 214 -98 282
-154 135 -390 90 -481 -93 -57 -113 -39 -248 46 -347 l29 -34 -65 -33 c-83
-42 -160 -109 -212 -186 -49 -71 -51 -70 -108 45 -93 190 -93 394 0 583 86
176 251 305 446 348 93 21 248 15 334 -14z m3547 14 c190 -38 366 -173 449
-344 95 -193 95 -396 2 -587 -57 -115 -59 -116 -108 -45 -52 77 -129 144 -212
186 l-65 33 29 34 c52 62 70 108 75 195 4 72 1 89 -20 136 -53 114 -142 177
-266 185 -243 17 -404 -241 -286 -458 15 -26 37 -58 50 -70 l23 -21 -70 -35
c-81 -41 -161 -111 -215 -189 l-38 -56 -20 24 c-33 41 -86 161 -101 233 -65
310 98 623 389 744 123 51 248 63 384 35z m-3616 -843 c125 -34 235 -121 295
-232 l24 -44 -38 -33 c-55 -47 -187 -110 -268 -127 -186 -39 -378 3 -530 115
l-56 41 28 52 c100 188 336 287 545 228z m3580 8 c130 -27 261 -123 321 -236
l28 -52 -53 -40 c-149 -112 -346 -155 -533 -116 -82 17 -214 80 -268 127 l-38
33 24 44 c99 184 314 283 519 240z m-735 -812 l28 -27 0 -756 0 -756 -33 -29
-32 -29 -419 0 c-386 0 -419 -1 -433 -17 -8 -10 -72 -118 -142 -240 -71 -123
-132 -223 -136 -223 -4 0 -65 100 -136 223 -70 122 -134 230 -142 240 -14 16
-47 17 -435 17 l-419 0 -34 34 -34 34 2 750 c3 734 3 750 23 772 11 12 29 26
40 31 11 4 527 7 1147 6 l1128 -2 27 -28z m-2813 -1947 c182 -46 344 -177 425
-340 94 -193 95 -396 0 -586 -56 -113 -60 -115 -99 -55 -44 69 -140 156 -213
193 -34 16 -64 32 -66 34 -2 2 11 21 28 43 128 161 85 386 -93 479 -44 23 -63
27 -141 27 -81 0 -95 -3 -143 -29 -65 -36 -107 -83 -140 -154 -21 -47 -24 -64
-20 -136 5 -89 25 -139 76 -194 l30 -32 -70 -37 c-85 -44 -163 -114 -213 -188
-20 -30 -38 -55 -40 -55 -13 0 -80 129 -101 195 -53 167 -41 329 38 494 52
110 168 229 275 284 146 76 314 96 467 57z m3591 5 c183 -38 363 -178 443
-346 78 -161 91 -328 38 -494 -21 -66 -88 -195 -101 -195 -2 0 -20 25 -40 55
-50 74 -128 144 -213 188 l-70 37 30 32 c51 55 71 105 76 194 4 72 1 89 -20
136 -33 71 -75 118 -140 154 -48 26 -62 29 -143 29 -78 0 -97 -4 -141 -27
-178 -93 -221 -320 -93 -481 17 -21 29 -40 28 -41 -2 -2 -30 -16 -63 -32 -71
-35 -173 -126 -216 -194 -39 -61 -43 -59 -99 53 -95 188 -94 394 0 587 33 67
59 102 123 165 164 164 376 227 601 180z m-3632 -840 c124 -32 228 -109 293
-217 l38 -61 -35 -29 c-53 -45 -147 -94 -229 -120 -112 -35 -275 -32 -385 6
-84 29 -120 48 -197 103 l-48 34 26 52 c33 63 123 153 190 189 104 56 235 72
347 43z m3612 0 c32 -9 81 -28 109 -43 67 -36 157 -126 189 -189 25 -47 25
-52 9 -66 -47 -41 -154 -100 -226 -124 -70 -23 -98 -27 -201 -27 -103 0 -131
4 -201 27 -75 25 -222 109 -239 137 -11 18 55 117 114 172 122 111 289 154
446 113z"/>
<path d="M2384 3180 c-193 -50 -361 -187 -448 -364 -156 -317 -56 -698 235
-892 370 -246 881 -86 1038 325 131 345 -13 716 -342 883 -135 68 -333 88
-483 48z m375 -113 c147 -52 265 -155 332 -291 90 -184 90 -359 -1 -543 -23
-46 -45 -83 -49 -83 -4 0 -25 25 -46 56 -44 64 -118 128 -190 164 -28 14 -52
26 -54 27 -2 1 13 21 33 45 62 72 80 167 50 268 -22 75 -109 162 -184 184
-115 34 -206 12 -291 -73 -44 -44 -61 -70 -73 -111 -30 -101 -12 -196 50 -269
30 -34 34 -45 23 -52 -8 -5 -19 -9 -25 -9 -29 0 -158 -106 -200 -163 -25 -34
-50 -63 -54 -65 -15 -6 -90 161 -105 233 -19 89 -19 152 0 240 47 222 205 391
429 457 93 27 257 20 355 -15z m-94 -751 c116 -31 224 -112 274 -208 l25 -46
-30 -26 c-45 -39 -152 -92 -223 -111 -174 -45 -402 4 -525 112 l-30 25 25 46
c86 164 303 257 484 208z"/>
</g>
</svg>
